<?xml version="1.0" standalone="yes"?>
<svg xmlns="http://www.w3.org/2000/svg" width="512" height="512">
<path style="fill:#ffffff; stroke:none;" d="M0 0L0 204L1 204C1.66005 124.266 65.6868 49.919 135 18.6944C155.939 9.26172 180.822 1.19183 204 1L184 0L143 0L0 0z"/>
<path style="fill:#1185e1; stroke:none;" d="M204 0.424377C165.181 5.58368 129.607 17.1447 97 39.3441C73.3667 55.434 53.1745 76.2383 37.3333 100C-45.3989 224.098 17.2353 401.262 162 442.573C191.594 451.018 223.447 453.517 254 449.715C286.469 445.675 318.347 434.461 346 416.947C455.275 347.736 484.688 194.955 407.37 91C392.735 71.3225 375.207 53.9773 355 40.0255C332.828 24.7166 308.17 13.1708 282 6.62656C257.297 0.449188 229.432 -2.95575 204 0.424377z"/>
<path style="fill:#ffffff; stroke:none;" d="M247 0L247 1C270.377 1.19348 294.772 9.56589 316 18.7191C408.832 58.748 464.073 160.587 448.725 260C444.377 288.167 434.431 315.465 419.989 340C415.705 347.279 410.841 354.195 405.846 361C404.079 363.407 400.476 366.686 401.342 370C403.793 379.384 421.183 391.183 428 398L485 455C493.836 463.836 506.409 473.065 511 485L512 485L512 0L247 0M218 42.4244C201.666 44.5691 185.895 45.6513 170 50.7462C125.196 65.1074 86.9668 96.7481 64.3117 138C6.29915 243.633 69.6422 377.691 186 404.349C205.133 408.732 225.533 410.043 245 407.715C336.926 396.72 406.867 319.525 408.985 227C410.893 143.68 350.365 68.9571 271 48.1157C254.538 43.7928 235.036 40.1876 218 42.4244M0 247L0 512L485 512L485 511C473.525 507.131 464.338 494.338 456 486L397 427C390.407 420.407 379.086 403.715 370 401.342C366.686 400.476 363.407 404.079 361 405.846C353.568 411.302 346 416.557 338 421.15C312.061 436.04 283.609 445.497 254 449.575C160.973 462.388 69.4791 411.662 25.3086 330C15.847 312.507 9.45623 293.29 4.88426 274C2.86475 265.479 3.36571 254.947 0 247z"/>
<path style="fill:#2199e1; stroke:none;" d="M398 369L397 371L398 369z"/>
<path style="fill:#35b2e1; stroke:none;" d="M399 369L400 370L399 369z"/>
<path style="fill:#4dcfe1; stroke:none;" d="M398.17 371.176C390.752 374 382.758 386.417 377.001 391.961C374.929 393.955 370.507 396.686 370.921 400.039C371.872 407.743 387.654 418.654 393 424L457 488C467.772 498.772 482.226 518.695 500 510.583C514.886 503.789 514.747 486.255 505.535 475C483.236 447.752 454.903 423.903 430 399L408 377.001C405.687 374.704 401.983 369.724 398.17 371.176z"/>
<path style="fill:#35b2e1; stroke:none;" d="M395 373L396 374L395 373M394 374L395 375L394 374M393 375L394 376L393 375z"/>
<path style="fill:#2199e1; stroke:none;" d="M392 376L393 377L392 376M391 377L392 378L391 377M390 378L391 379L390 378M389 379L390 380L389 379M388 380L389 381L388 380M387 381L388 382L387 381M381 387L382 388L381 387M380 388L381 389L380 388M379 389L380 390L379 389M378 390L379 391L378 390M377 391L378 392L377 391M376 392L377 393L376 392z"/>
<path style="fill:#35b2e1; stroke:none;" d="M375 393L376 394L375 393M374 394L375 395L374 394M373 395L374 396L373 395z"/>
<path style="fill:#2199e1; stroke:none;" d="M370 397L371 398L370 397M369 398L370 399L369 398z"/>
<path style="fill:#35b2e1; stroke:none;" d="M369 399L370 400L369 399z"/>
<path style="fill:#ffffff; stroke:none;" d="M511 498C508.294 504.153 504.04 508.126 498 511L498 512L512 512L511 498z"/>
</svg>
